{"glyphs":{"0":{"ha":694,"x_min":39,"x_max":656,"o":"m 355 41 q 483 150 441 41 q 524 457 524 258 q 475 774 524 656 q 339 893 426 893 q 212 785 253 893 q 171 478 171 676 q 220 161 171 279 q 355 41 269 41 m 359 956 q 585 833 514 956 q 656 482 656 710 q 575 117 656 248 q 335 -21 490 -21 q 109 103 181 -21 q 39 453 39 220 q 120 819 39 687 q 359 956 204 956 z "},"1":{"ha":694,"x_min":132,"x_max":551,"o":"m 414 943 q 419 937 419 943 l 419 66 q 428 58 419 59 l 546 49 q 551 43 551 48 l 551 5 q 546 0 551 0 l 168 0 q 163 5 163 0 l 163 43 q 168 49 163 48 l 293 58 q 298 60 296 58 q 301 66 301 62 l 301 811 q 294 819 301 819 l 147 800 q 142 806 144 801 l 132 842 q 134 844 132 843 l 136 847 l 370 942 q 376 943 375 943 l 414 943 z "},"2":{"ha":694,"x_min":31,"x_max":632,"o":"m 627 113 q 632 107 632 113 l 632 5 q 627 0 632 0 l 57 0 q 55 1 56 0 q 53 3 54 1 l 32 37 q 31 42 31 39 q 33 46 31 45 q 355 389 231 216 q 426 525 394 443 q 457 681 457 606 q 413 823 457 766 q 285 885 366 885 q 176 860 227 885 q 168 847 170 859 l 146 707 q 140 703 146 703 l 83 703 q 78 708 78 703 l 78 893 q 83 903 78 899 q 199 943 123 926 q 325 956 257 956 q 519 897 445 956 q 603 726 603 832 q 561 545 603 644 q 472 393 527 467 q 204 113 383 275 l 627 113 z "},"3":{"ha":694,"x_min":57,"x_max":648,"o":"m 205 521 q 211 525 205 525 q 380 580 317 525 q 446 729 446 637 q 403 846 446 804 q 288 888 360 888 q 161 860 239 888 q 151 847 155 857 l 132 705 q 125 700 132 700 l 75 700 q 69 705 69 700 l 69 905 q 75 913 69 909 q 309 956 202 956 q 494 911 422 956 q 582 751 582 856 q 536 624 582 683 q 418 534 491 564 q 586 446 523 515 q 648 285 648 377 q 535 58 648 142 q 289 -20 430 -20 q 114 3 219 -20 q 62 17 86 9 q 57 22 57 20 l 57 233 q 62 239 57 239 l 118 239 q 123 235 123 237 l 151 77 q 158 68 151 70 q 289 45 206 45 q 441 100 383 45 q 497 254 497 154 q 434 409 497 355 q 264 464 371 464 q 211 461 234 464 q 205 467 205 461 l 205 521 z "},"4":{"ha":694,"x_min":26,"x_max":671,"o":"m 415 248 q 407 256 415 256 l 43 256 q 40 256 40 256 q 39 258 40 257 l 28 286 q 28 293 26 290 l 482 946 q 486 949 485 949 l 528 943 q 533 937 533 943 l 533 364 q 542 355 533 355 l 665 355 q 671 350 671 355 l 671 261 q 665 256 671 256 l 542 256 q 533 248 533 256 l 533 66 q 542 58 533 58 l 633 49 q 639 43 639 49 l 639 5 q 633 0 639 0 l 307 0 q 301 5 301 0 l 301 43 q 307 49 301 49 l 407 58 q 415 66 415 58 l 415 248 m 147 355 l 407 355 q 415 364 415 355 l 415 751 l 147 355 z "},"5":{"ha":694,"x_min":29,"x_max":614,"o":"m 161 612 q 286 625 220 625 q 522 543 429 625 q 614 326 614 461 q 507 79 614 177 q 241 -20 399 -20 q 132 -3 193 -20 q 35 45 71 13 q 30 51 31 48 q 31 54 29 53 l 58 94 q 62 96 60 96 q 68 94 64 96 q 193 51 117 62 q 236 47 215 47 q 408 114 340 47 q 476 283 476 181 q 411 444 476 382 q 240 505 345 505 q 94 484 176 505 q 83 489 83 481 l 83 929 q 90 935 83 935 l 547 935 q 553 929 553 935 l 553 822 q 547 817 553 817 l 168 817 q 158 807 158 817 l 158 610 l 161 612 z "},"6":{"ha":694,"x_min":41,"x_max":668,"o":"m 196 468 q 179 322 179 378 q 199 203 179 265 q 309 61 233 97 q 370 47 336 47 q 492 115 450 47 q 526 264 526 170 q 482 433 526 374 q 326 500 431 500 q 255 491 300 500 q 196 468 223 485 m 207 539 q 375 585 293 585 q 588 504 507 585 q 668 296 668 424 q 583 72 668 159 q 355 -20 494 -20 q 121 89 206 -20 q 41 335 41 189 q 207 775 41 588 q 581 960 349 936 q 589 954 589 960 l 597 909 q 587 901 597 903 q 361 806 446 875 q 300 741 326 777 q 207 539 241 655 z "},"7":{"ha":694,"x_min":49,"x_max":655,"o":"m 627 935 q 632 932 630 934 l 652 903 q 654 899 653 900 q 653 895 655 898 l 271 -3 q 265 -7 267 -7 l 132 -7 q 126 -1 126 -7 q 127 3 126 1 l 550 828 l 142 828 q 132 819 132 828 l 114 720 q 106 715 114 715 l 54 715 q 49 720 49 715 l 49 929 q 54 935 49 935 l 627 935 z "},"8":{"ha":694,"x_min":43,"x_max":652,"o":"m 347 50 q 494 151 456 50 q 505 220 505 182 q 389 400 505 330 q 309 443 351 422 q 214 355 248 416 q 180 228 180 298 q 274 65 180 107 q 347 50 306 50 m 339 889 q 245 847 279 889 q 211 743 211 804 q 252 622 211 668 q 372 541 286 583 l 382 541 q 484 732 484 598 q 445 846 484 802 q 339 889 407 889 m 354 956 q 534 899 462 956 q 608 742 608 839 q 440 504 608 591 q 599 392 551 450 q 652 239 652 327 q 595 85 652 150 q 455 -2 543 25 q 335 -20 397 -20 q 132 43 214 -20 q 43 216 43 110 q 96 371 43 307 q 243 478 146 432 q 113 579 156 525 q 71 715 71 633 q 154 895 71 828 q 354 956 230 956 z "},"9":{"ha":694,"x_min":36,"x_max":650,"o":"m 497 468 l 508 545 q 513 623 513 583 q 488 754 513 690 q 410 863 460 824 q 329 889 376 889 q 212 821 252 889 q 178 672 178 764 q 222 503 178 564 q 371 436 271 436 q 472 455 427 436 q 497 468 486 461 m 396 196 q 443 280 415 223 q 486 396 467 328 q 323 351 410 351 q 115 432 194 351 q 36 640 36 512 q 83 815 36 737 q 217 931 131 894 q 343 956 273 956 q 573 848 489 956 q 650 602 650 749 q 489 161 650 352 q 122 -22 355 3 q 114 -17 114 -22 l 107 28 q 117 36 107 31 q 336 132 259 66 q 396 196 372 161 z "}," ":{"ha":347,"x_min":0,"x_max":0,"o":""},",":{"ha":347,"x_min":85,"x_max":270,"o":"m 86 -140 q 85 -138 85 -138 q 87 -134 85 -135 q 185 -18 185 -87 q 106 58 185 58 q 86 103 86 78 q 152 164 86 164 q 232 131 197 164 q 270 29 270 94 q 106 -171 270 -102 q 99 -168 102 -174 l 86 -140 z "},".":{"ha":347,"x_min":94,"x_max":253,"o":"m 173 140 q 247 92 227 140 q 253 60 253 77 q 229 5 253 27 q 173 -20 203 -20 q 117 4 140 -20 q 94 60 94 27 q 117 117 94 94 q 173 140 140 140 z "},":":{"ha":347,"x_min":94,"x_max":253,"o":"m 173 603 q 247 554 227 603 q 253 522 253 539 q 229 467 253 490 q 173 443 203 443 q 117 466 140 443 q 94 522 94 490 q 117 579 94 556 q 173 603 140 603 m 173 140 q 247 92 227 140 q 253 60 253 77 q 229 5 253 27 q 173 -20 203 -20 q 117 4 140 -20 q 94 60 94 27 q 117 117 94 94 q 173 140 140 140 z "},"A":{"ha":986,"x_min":0,"x_max":972,"o":"m 473 747 q 468 751 471 751 q 463 747 464 751 l 332 415 q 338 406 328 406 l 589 406 q 596 415 600 406 l 473 747 m 608 0 q 602 7 602 0 l 602 43 q 608 50 602 50 l 717 61 q 722 64 721 61 q 722 71 724 66 l 619 343 q 614 347 616 347 l 311 347 q 306 343 308 347 l 196 68 q 203 58 193 59 l 307 50 q 314 43 314 50 l 314 7 q 307 0 314 0 l 7 0 q 0 7 0 0 l 0 43 q 7 50 0 50 l 121 61 q 126 65 124 62 l 479 954 q 485 958 482 958 l 519 958 q 525 954 523 958 l 850 66 q 856 62 851 62 l 966 50 q 972 43 972 50 l 972 7 q 965 0 972 0 l 608 0 z "},"B":{"ha":836,"x_min":52,"x_max":787,"o":"m 304 533 q 311 526 304 526 l 354 526 q 525 561 467 526 q 602 705 602 607 q 547 828 602 787 q 417 869 496 866 l 364 871 l 311 871 q 304 864 304 871 l 304 533 m 304 71 q 311 64 304 64 l 399 64 q 648 252 648 64 q 372 473 648 473 l 311 473 q 304 467 304 473 l 304 71 m 382 935 q 625 896 553 935 q 699 831 675 869 q 728 721 728 784 q 558 514 728 574 q 718 429 655 493 q 787 264 787 359 q 743 122 787 187 q 414 0 661 0 l 58 0 q 52 7 52 0 l 52 43 q 58 50 52 50 l 176 61 q 183 68 183 61 l 183 867 q 176 873 183 873 l 58 885 q 52 892 52 885 l 52 928 q 58 935 52 935 l 382 935 z "},"C":{"ha":899,"x_min":53,"x_max":829,"o":"m 582 956 q 639 952 607 956 q 703 944 671 949 q 767 932 736 939 q 822 922 799 926 q 829 916 829 921 l 829 705 q 822 699 829 699 l 768 699 q 763 700 765 699 q 761 704 761 701 l 733 860 q 728 867 733 864 q 696 874 715 869 q 657 883 677 879 q 616 890 637 888 q 575 893 595 893 q 410 865 482 893 q 288 784 338 836 q 213 659 239 732 q 187 498 187 586 q 214 325 187 407 q 292 180 241 243 q 413 82 342 118 q 570 46 484 46 q 606 47 585 46 q 649 52 628 49 q 692 58 671 54 q 728 71 713 62 q 733 78 733 74 l 761 235 q 763 238 761 236 q 768 240 765 240 l 822 240 q 829 233 829 240 l 829 24 q 822 17 829 20 q 771 5 799 11 q 710 -7 743 -1 q 640 -16 677 -12 q 555 -20 602 -20 q 413 -3 479 -20 q 290 45 346 14 q 190 120 233 77 q 116 217 146 164 q 70 334 86 271 q 53 465 53 397 q 72 610 53 543 q 127 731 92 676 q 211 828 163 786 q 318 898 260 869 q 444 941 376 926 q 582 956 511 956 z "},"D":{"ha":1006,"x_min":52,"x_max":953,"o":"m 304 71 q 311 64 304 64 l 410 64 q 714 138 619 64 q 821 425 821 222 q 432 871 821 871 l 311 871 q 304 864 304 871 l 304 71 m 183 861 q 176 868 183 868 l 58 879 q 52 886 52 879 l 52 928 q 58 935 52 935 l 432 935 q 806 825 672 935 q 953 472 953 707 q 411 0 953 0 l 58 0 q 52 7 52 0 l 52 49 q 58 56 52 56 l 176 66 q 183 74 183 66 l 183 861 z "},"E":{"ha":811,"x_min":52,"x_max":749,"o":"m 722 935 q 729 928 729 935 l 729 710 q 722 703 729 703 l 671 703 q 664 708 664 703 l 636 865 q 629 871 636 871 l 311 871 q 304 864 304 871 l 304 521 q 311 514 304 514 l 503 514 q 510 519 510 514 l 524 632 q 530 637 524 637 l 568 637 q 575 631 575 637 l 575 329 q 568 322 575 322 l 530 322 q 524 328 524 322 l 510 447 q 503 453 510 453 l 311 453 q 304 446 304 453 l 304 71 q 311 64 304 64 l 648 64 q 656 69 656 64 l 684 224 q 690 229 684 229 l 742 229 q 749 222 749 229 l 749 7 q 742 0 749 0 l 58 0 q 52 7 52 0 l 52 43 q 58 50 52 50 l 176 61 q 183 68 183 61 l 183 869 q 176 873 180 873 l 58 885 q 52 892 52 885 l 52 928 q 58 935 52 935 l 722 935 z "},"F":{"ha":743,"x_min":52,"x_max":715,"o":"m 708 935 q 715 928 715 935 l 715 710 q 708 703 715 703 l 657 703 q 650 708 650 703 l 623 865 q 615 871 623 871 l 311 871 q 304 864 304 871 l 304 500 q 311 494 304 494 l 494 494 q 501 500 501 494 l 515 612 q 522 618 515 618 l 559 618 q 567 611 567 618 l 567 315 q 559 309 567 309 l 522 309 q 515 314 515 309 l 501 428 q 494 433 501 433 l 311 433 q 304 428 304 433 l 304 68 q 311 61 304 61 l 429 50 q 436 43 436 50 l 436 7 q 429 0 436 0 l 58 0 q 52 7 52 0 l 52 43 q 58 50 52 50 l 176 61 q 183 68 183 61 l 183 869 q 179 873 182 873 l 176 873 l 58 885 q 52 892 52 885 l 52 928 q 57 935 52 935 l 708 935 z "},"G":{"ha":983,"x_min":53,"x_max":956,"o":"m 589 956 q 777 932 661 956 q 831 922 793 929 q 838 916 838 921 l 838 705 q 831 699 838 699 l 777 699 q 770 704 770 699 l 742 860 q 736 867 742 864 q 579 893 616 893 q 292 787 397 893 q 187 498 187 681 q 288 184 187 314 q 578 43 398 43 q 717 61 629 43 l 717 342 q 710 349 717 349 l 591 359 q 585 368 585 359 l 585 401 q 593 410 585 410 l 947 410 q 956 401 956 410 l 956 368 q 949 359 956 359 l 844 349 q 838 345 839 349 l 838 21 q 831 14 838 17 q 559 -20 686 -20 q 199 113 341 -20 q 53 465 53 249 q 125 725 53 611 q 330 901 198 840 q 589 956 450 956 z "},"H":{"ha":1059,"x_min":52,"x_max":1007,"o":"m 52 928 q 58 935 52 935 l 422 935 q 429 928 429 935 l 429 892 q 422 885 429 885 l 311 873 q 304 867 304 873 l 304 530 q 307 526 304 526 l 753 526 q 754 530 754 528 l 754 867 q 747 873 754 873 l 636 885 q 629 892 629 885 l 629 928 q 636 935 629 935 l 1000 935 q 1007 928 1007 935 l 1007 892 q 1000 885 1007 885 l 882 873 q 875 867 875 873 l 875 68 q 882 61 875 61 l 1000 50 q 1007 43 1007 50 l 1007 7 q 1000 0 1007 0 l 636 0 q 629 7 629 0 l 629 43 q 636 50 629 50 l 747 61 q 754 68 754 61 l 754 456 q 747 463 754 463 l 311 463 q 304 456 304 463 l 304 68 q 311 61 304 61 l 422 50 q 429 43 429 50 l 429 7 q 422 0 429 0 l 58 0 q 52 7 52 0 l 52 43 q 58 50 52 50 l 176 61 q 183 68 183 61 l 183 867 q 176 873 183 873 l 58 885 q 52 892 52 885 l 52 928 z "},"I":{"ha":490,"x_min":52,"x_max":439,"o":"m 432 935 q 439 928 439 935 l 439 892 q 432 885 439 885 l 314 873 q 307 867 307 873 l 307 68 q 314 61 307 61 l 432 50 q 439 43 439 50 l 439 7 q 432 0 439 0 l 58 0 q 52 7 52 0 l 52 43 q 58 50 52 50 l 176 61 q 183 68 183 61 l 183 867 q 176 873 183 873 l 58 885 q 52 892 52 885 l 52 928 q 58 935 52 935 l 432 935 z "},"J":{"ha":449,"x_min":11,"x_max":425,"o":"m 418 935 q 419 936 418 936 q 425 928 425 936 l 425 892 q 418 885 425 885 l 300 873 q 293 867 293 873 l 293 154 q 253 -79 293 7 q 39 -258 199 -197 q 32 -253 34 -258 l 16 -225 q 14 -221 14 -222 q 16 -212 11 -215 q 112 -136 85 -169 q 172 45 162 -76 q 175 147 175 89 l 175 867 q 168 873 175 873 l 50 885 q 43 892 43 885 l 43 928 q 50 935 43 935 l 418 935 z "},"K":{"ha":926,"x_min":58,"x_max":926,"o":"m 58 928 q 65 935 58 935 l 403 935 q 410 928 410 935 l 410 890 q 404 885 410 885 l 310 873 q 304 867 304 873 l 304 490 l 640 868 q 642 875 643 871 q 636 879 640 879 l 579 885 q 572 892 572 885 l 572 928 q 579 935 572 935 l 860 935 q 867 928 867 935 l 867 892 q 860 885 867 885 l 730 872 q 726 871 728 872 l 440 549 q 437 545 438 547 l 439 541 l 789 65 q 793 62 791 62 l 920 50 q 926 43 926 50 l 926 7 q 920 0 926 0 l 572 0 q 566 7 566 0 l 566 43 q 572 50 566 50 l 633 56 q 639 59 637 56 q 639 66 640 62 l 357 446 q 351 449 354 449 q 347 446 349 448 l 306 399 q 304 395 304 397 l 304 66 q 310 60 304 60 l 400 50 q 406 45 406 50 l 406 7 q 399 0 406 0 l 65 0 q 58 7 58 0 l 58 43 q 65 50 58 50 l 176 61 q 183 68 183 61 l 183 867 q 176 873 183 873 l 65 885 q 58 892 58 885 l 58 928 z "},"L":{"ha":766,"x_min":53,"x_max":733,"o":"m 53 928 q 60 935 53 935 l 436 935 q 443 928 443 935 l 443 892 q 436 885 443 885 l 311 873 q 304 867 304 873 l 304 71 q 311 64 304 64 l 633 64 q 640 69 640 64 l 668 224 q 675 229 668 229 l 726 229 q 733 222 733 229 l 733 7 q 726 0 733 0 l 60 0 q 53 7 53 0 l 53 43 q 60 50 53 50 l 176 61 q 183 68 183 61 l 183 867 q 176 873 183 873 l 60 885 q 53 892 53 885 l 53 928 z "},"M":{"ha":1254,"x_min":33,"x_max":1221,"o":"m 326 935 q 332 930 330 934 l 628 200 l 925 930 q 930 935 926 935 l 1207 935 q 1214 928 1214 935 l 1214 892 q 1207 885 1214 885 l 1089 873 q 1082 867 1082 873 l 1082 68 q 1089 61 1082 62 l 1214 50 q 1221 43 1221 50 l 1221 7 q 1214 0 1221 0 l 823 0 q 817 7 817 0 l 817 43 q 823 50 817 50 l 954 61 q 961 68 961 62 l 961 839 l 956 839 l 612 -9 q 606 -12 611 -12 l 591 -12 q 585 -9 586 -12 l 241 829 l 236 829 l 236 68 q 243 61 236 61 l 358 50 q 366 43 366 50 l 366 7 q 358 0 366 0 l 40 0 q 33 7 33 0 l 33 43 q 40 50 33 50 l 164 61 q 171 68 171 62 l 171 867 q 164 873 171 873 l 46 885 q 39 892 39 885 l 39 928 q 46 935 39 935 l 326 935 z "},"N":{"ha":1008,"x_min":28,"x_max":987,"o":"m 28 928 q 35 935 28 935 l 279 935 q 285 932 283 934 l 800 250 l 800 861 q 794 868 800 868 l 692 879 q 685 886 685 879 l 685 928 q 692 935 685 935 l 981 935 q 987 928 987 935 l 987 886 q 981 879 987 879 l 876 868 q 869 861 869 868 l 869 -4 q 861 -11 869 -11 l 835 -11 q 828 -7 831 -10 l 229 786 l 229 74 q 235 66 229 66 l 336 56 q 343 49 343 56 l 343 7 q 336 0 343 0 l 47 0 q 40 7 40 0 l 40 49 q 47 56 40 56 l 153 66 q 160 74 160 66 l 160 861 q 153 868 160 868 l 35 879 q 28 886 28 879 l 28 928 z "},"O":{"ha":1050,"x_min":53,"x_max":997,"o":"m 530 956 q 870 817 741 956 q 997 471 997 682 q 869 123 997 260 q 530 -20 739 -20 q 187 118 321 -20 q 53 465 53 256 q 185 815 53 677 q 530 956 320 956 m 514 893 q 268 770 358 893 q 187 498 187 660 q 227 283 187 382 q 355 108 271 174 q 549 43 440 43 q 790 169 705 43 q 863 443 863 278 q 771 755 863 627 q 514 893 673 893 z "},"P":{"ha":819,"x_min":52,"x_max":778,"o":"m 314 871 q 307 864 307 871 l 307 469 q 314 463 307 463 l 395 463 q 640 677 640 463 q 564 829 640 782 q 382 871 497 871 l 314 871 m 406 935 q 606 911 538 935 q 778 669 778 853 q 668 469 778 547 q 441 397 570 400 l 307 421 l 307 68 q 314 61 307 62 l 446 50 q 453 43 453 50 l 453 7 q 446 0 453 0 l 58 0 q 52 7 52 0 l 52 43 q 58 50 52 50 l 176 61 q 183 68 183 61 l 183 867 q 176 873 183 873 l 58 885 q 52 892 52 885 l 52 928 q 58 935 52 935 l 406 935 z "},"Q":{"ha":1050,"x_min":53,"x_max":1274,"o":"m 530 956 q 870 817 741 956 q 997 471 997 682 q 836 92 997 232 q 721 18 784 46 q 717 14 717 17 q 718 8 717 9 q 912 -100 804 -53 q 1125 -157 1041 -157 q 1250 -143 1175 -157 q 1255 -147 1255 -143 l 1272 -191 q 1272 -195 1274 -193 l 1268 -197 l 1090 -283 q 943 -238 1030 -278 q 686 -80 808 -177 q 614 -17 644 -47 q 609 -14 611 -14 l 603 -14 q 530 -20 572 -20 q 187 118 321 -20 q 53 465 53 256 q 185 815 53 677 q 530 956 320 956 m 514 893 q 268 770 358 893 q 187 498 187 660 q 227 283 187 382 q 355 108 271 174 q 549 43 440 43 q 790 169 705 43 q 863 443 863 278 q 771 755 863 627 q 514 893 673 893 z "},"R":{"ha":907,"x_min":52,"x_max":907,"o":"m 307 500 q 313 493 307 493 q 448 496 409 493 q 592 574 547 505 q 618 671 618 614 q 363 871 618 871 l 314 871 q 307 864 307 871 l 307 500 m 386 935 q 657 876 574 935 q 754 690 754 808 q 622 486 754 555 q 534 452 581 464 q 669 296 606 417 l 789 66 q 799 61 791 61 l 900 50 q 907 43 907 50 l 907 7 q 900 0 907 0 l 682 0 q 672 5 675 0 l 553 256 q 330 436 467 436 l 314 436 q 307 431 307 436 l 307 68 q 314 61 307 62 l 446 50 q 453 43 453 50 l 453 7 q 446 0 453 0 l 58 0 q 52 7 52 0 l 52 43 q 58 50 52 50 l 176 61 q 183 68 183 61 l 183 867 q 176 873 183 873 l 58 885 q 52 892 52 885 l 52 928 q 58 935 52 935 l 386 935 z "},"S":{"ha":668,"x_min":50,"x_max":632,"o":"m 517 699 q 510 704 510 699 l 482 860 q 476 867 482 864 q 347 893 416 893 q 225 855 275 893 q 170 743 170 813 q 219 629 170 676 q 328 564 252 598 l 418 522 q 572 423 524 473 q 632 267 632 360 q 525 50 632 127 q 285 -20 429 -20 q 115 2 211 -20 q 65 17 87 8 q 58 24 58 20 l 58 233 q 65 240 58 240 l 122 240 q 129 235 129 238 l 157 78 q 159 75 157 76 l 163 71 q 298 46 212 46 q 441 86 384 46 q 507 214 507 132 q 355 399 507 328 l 264 441 q 115 537 163 488 q 50 689 50 602 q 104 844 50 777 q 241 938 156 910 q 355 956 295 956 q 521 936 436 956 q 571 922 544 930 q 578 916 578 921 l 578 705 q 571 699 578 699 l 517 699 z "},"T":{"ha":838,"x_min":28,"x_max":810,"o":"m 803 935 q 810 928 810 935 l 810 710 q 803 703 810 703 l 751 703 q 745 708 745 703 l 717 865 q 710 871 717 871 l 485 871 q 479 864 479 871 l 479 68 q 486 61 479 62 l 618 50 q 625 43 625 50 l 625 7 q 618 0 625 0 l 220 0 q 212 7 212 0 l 212 43 q 220 50 212 50 l 351 61 q 358 68 358 62 l 358 864 q 353 871 358 871 l 127 871 q 121 865 121 871 l 93 708 q 86 703 93 703 l 35 703 q 28 710 28 703 l 28 928 q 35 935 28 935 l 803 935 z "},"U":{"ha":997,"x_min":21,"x_max":987,"o":"m 151 867 q 144 873 151 873 l 28 885 q 21 892 21 885 l 21 928 q 28 935 21 935 l 404 935 q 411 928 411 935 l 411 892 q 404 885 411 885 l 279 873 q 272 867 272 873 l 272 366 q 283 205 272 262 q 319 131 292 162 q 529 47 392 47 q 749 164 676 47 q 779 279 772 201 q 783 380 783 321 l 783 867 q 777 873 783 873 l 659 885 q 652 892 652 885 l 652 928 q 659 935 652 935 l 981 935 q 987 928 987 935 l 987 892 q 981 885 987 885 l 867 873 q 860 867 860 873 l 860 386 q 766 68 860 158 q 510 -20 675 -20 q 229 74 323 -20 q 172 160 188 115 q 151 315 151 220 l 151 867 z "},"V":{"ha":989,"x_min":14,"x_max":983,"o":"m 378 935 q 385 928 385 935 l 385 892 q 378 885 385 885 l 269 873 q 264 871 265 873 q 264 864 262 868 l 521 176 l 786 867 q 779 876 789 876 l 675 885 q 668 892 668 886 l 668 928 q 675 935 668 935 l 977 935 q 983 928 983 935 l 983 892 q 977 885 983 885 l 863 873 q 857 869 859 873 l 511 -16 q 505 -20 510 -20 l 469 -20 q 464 -16 465 -20 l 136 868 q 131 872 135 872 l 20 885 q 14 892 14 885 l 14 928 q 21 935 14 935 l 378 935 z "},"W":{"ha":1439,"x_min":14,"x_max":1434,"o":"m 378 935 q 385 928 385 935 l 385 892 q 378 885 385 885 l 272 873 q 267 871 268 873 q 267 864 265 868 l 517 176 l 693 661 l 621 868 q 615 872 618 872 l 501 885 q 496 892 496 885 l 496 928 q 503 935 496 935 l 860 935 q 867 928 867 935 l 867 892 q 860 885 867 885 l 754 873 q 749 864 745 873 l 985 175 l 1232 867 q 1225 876 1236 875 l 1124 885 q 1117 892 1117 886 l 1117 928 q 1124 935 1117 935 l 1426 935 q 1434 928 1434 935 l 1434 892 q 1426 885 1434 885 l 1310 873 q 1304 869 1305 873 l 977 -16 q 971 -20 975 -20 l 933 -20 q 928 -16 929 -20 l 724 570 l 505 -16 q 500 -20 503 -20 l 465 -20 q 460 -16 462 -19 l 139 868 q 134 872 138 872 l 20 885 q 14 892 14 885 l 14 928 q 21 935 14 935 l 378 935 z "},"X":{"ha":905,"x_min":4,"x_max":914,"o":"m 396 935 q 403 928 403 935 l 403 892 q 396 885 403 885 l 296 876 q 290 872 292 876 q 290 865 289 868 l 476 562 l 688 865 q 689 869 689 867 q 682 876 689 876 l 586 885 q 579 892 579 885 l 579 928 q 586 935 579 935 l 882 935 q 889 928 889 935 l 889 892 q 882 885 889 885 l 778 875 q 772 872 774 874 l 514 501 l 783 64 q 789 61 786 61 l 907 50 q 914 43 914 50 l 914 7 q 907 0 914 0 l 532 0 q 525 7 525 0 l 525 43 q 532 50 525 50 l 632 58 q 637 62 636 58 q 637 69 639 65 l 433 399 l 205 69 q 205 62 203 65 q 206 60 205 60 q 211 58 208 58 l 307 50 q 314 43 314 50 l 314 7 q 307 0 314 0 l 11 0 q 4 7 4 0 l 4 43 q 11 50 4 50 l 115 60 q 121 62 119 60 l 396 460 l 144 871 q 139 873 142 873 l 21 885 q 14 892 14 885 l 14 928 q 21 935 14 935 l 396 935 z "},"Y":{"ha":937,"x_min":14,"x_max":932,"o":"m 739 865 q 741 869 741 867 q 733 876 741 876 l 637 885 q 631 892 631 885 l 631 928 q 637 935 631 935 l 925 935 q 932 928 932 935 l 932 892 q 925 885 932 885 l 821 875 q 815 872 817 874 l 539 399 q 538 392 538 397 l 538 68 q 545 61 538 61 l 663 50 q 669 43 669 50 l 669 7 q 663 0 669 0 l 292 0 q 285 7 285 0 l 285 43 q 292 50 285 50 l 410 61 q 416 68 416 61 l 416 385 q 415 393 416 390 l 144 871 q 139 873 142 873 l 21 885 q 14 892 14 885 l 14 928 q 21 935 14 935 l 390 935 q 397 928 397 935 l 397 892 q 390 885 397 885 l 290 876 q 285 872 286 876 q 285 865 283 868 l 507 463 l 739 865 z "},"Z":{"ha":867,"x_min":45,"x_max":794,"o":"m 179 871 q 172 865 172 871 l 144 708 q 138 703 144 703 l 86 703 q 79 710 79 703 l 79 928 q 86 935 79 935 l 765 935 q 771 930 770 935 l 793 893 q 793 890 794 892 l 791 886 l 204 64 l 694 64 q 701 69 701 64 l 729 227 q 736 232 729 232 l 787 232 q 794 225 794 232 l 794 7 q 787 0 794 0 l 74 0 q 68 4 69 0 l 46 41 q 45 46 45 45 q 47 49 46 47 l 631 871 l 179 871 z "},"a":{"ha":615,"x_min":41,"x_max":595,"o":"m 378 289 q 271 273 307 285 q 237 262 261 271 q 165 155 165 238 q 254 66 165 66 q 317 79 280 66 q 371 104 335 86 q 378 113 378 109 l 378 289 m 387 61 q 197 -20 300 -20 q 54 68 91 -20 q 41 129 41 96 q 158 297 41 243 q 230 321 193 313 q 378 343 311 338 l 378 450 q 272 558 378 558 q 167 536 212 558 q 160 525 163 533 l 140 422 q 134 416 140 416 l 90 416 q 83 422 83 416 l 83 576 q 90 583 83 581 q 298 623 200 623 q 479 539 437 623 q 494 460 494 508 l 494 85 q 500 77 494 79 l 587 52 q 595 45 594 47 l 595 21 q 589 14 592 14 l 406 -11 q 399 -4 399 -11 l 387 61 z "},"b":{"ha":729,"x_min":11,"x_max":685,"o":"m 245 74 q 358 43 277 43 q 547 197 503 43 q 559 298 559 243 q 522 456 559 396 q 386 530 477 530 q 248 490 318 530 q 245 485 245 489 l 245 74 m 192 979 q 199 981 196 981 l 239 981 q 245 974 245 981 l 245 545 q 446 623 334 623 q 623 535 555 623 q 685 338 685 454 q 593 84 685 185 q 347 -20 498 -20 q 224 -2 292 -20 q 134 39 166 13 l 134 888 q 126 895 134 895 l 18 905 q 11 913 11 905 l 11 945 q 17 951 11 951 l 192 979 z "},"c":{"ha":619,"x_min":45,"x_max":576,"o":"m 363 623 q 545 590 459 623 q 551 583 551 587 l 551 422 q 545 416 551 416 l 501 416 q 494 422 494 416 l 472 528 q 467 536 472 532 q 358 564 408 564 q 216 490 269 564 q 168 332 168 425 q 219 142 168 216 q 389 58 277 58 q 546 109 471 58 q 551 110 550 111 q 554 106 553 109 l 574 72 q 570 62 576 67 q 338 -20 451 -20 q 123 64 203 -20 q 45 282 45 146 q 132 522 45 425 q 363 623 222 623 z "},"d":{"ha":733,"x_min":45,"x_max":710,"o":"m 484 529 q 439 551 469 544 q 371 559 400 559 q 216 479 271 559 q 170 304 170 410 q 207 146 170 208 q 343 72 252 72 q 476 110 416 72 q 484 118 483 116 l 484 529 m 542 979 q 549 981 546 981 l 589 981 q 596 974 596 981 l 596 66 q 603 60 596 60 l 703 49 q 710 41 710 49 l 710 9 q 704 3 710 3 l 497 -11 q 490 -4 491 -12 l 486 61 q 283 -20 387 -20 q 106 71 173 -20 q 45 265 45 153 q 136 518 45 417 q 382 623 232 623 q 484 610 424 623 l 484 888 q 476 895 484 895 l 368 905 q 361 913 361 905 l 361 945 q 367 951 361 951 l 542 979 z "},"e":{"ha":637,"x_min":45,"x_max":581,"o":"m 323 561 q 183 440 215 561 q 171 370 174 404 l 454 370 q 323 561 460 561 m 170 315 q 222 135 172 202 q 389 58 280 58 q 551 106 475 58 q 556 107 554 109 q 559 103 557 105 l 579 69 q 575 60 581 63 q 335 -20 456 -20 q 121 64 199 -20 q 45 282 45 146 q 119 517 45 422 q 336 623 201 623 q 519 554 456 623 q 579 367 579 488 q 576 322 579 345 q 570 315 576 315 l 170 315 z "},"f":{"ha":441,"x_min":25,"x_max":533,"o":"m 32 0 q 25 7 25 0 l 25 41 q 32 49 25 49 l 140 58 q 147 65 147 58 l 147 529 q 140 533 144 533 l 37 533 q 31 541 31 533 l 31 575 q 37 582 31 582 l 140 595 q 147 602 147 595 l 147 664 q 212 908 147 839 q 396 981 280 981 q 526 960 444 981 q 533 951 533 956 l 533 794 q 526 789 533 789 l 484 789 q 476 794 476 789 l 458 889 q 420 912 456 903 q 382 917 402 917 q 260 724 260 917 l 260 604 q 267 597 260 597 l 433 597 q 440 590 440 597 l 440 541 q 433 533 440 533 l 267 533 q 260 526 260 533 l 260 65 q 267 58 260 59 l 376 49 q 383 41 383 48 l 383 7 q 376 0 383 0 l 32 0 z "},"g":{"ha":661,"x_min":29,"x_max":643,"o":"m 237 -39 q 168 -87 197 -45 q 138 -171 138 -129 q 321 -301 138 -301 q 462 -270 406 -301 q 530 -151 530 -231 q 354 -39 530 -39 l 237 -39 m 325 235 q 424 317 397 235 q 433 393 433 347 q 319 564 433 564 q 214 479 241 564 q 204 401 204 446 q 243 270 204 315 q 325 235 274 235 m 228 191 q 179 127 179 162 q 221 70 179 76 q 253 68 235 68 l 361 68 q 496 58 452 68 q 610 -7 572 43 q 640 -81 633 -37 q 643 -111 643 -98 q 580 -262 643 -199 q 433 -342 524 -317 q 302 -358 374 -358 q 125 -326 197 -358 q 29 -189 29 -282 q 71 -91 29 -140 q 158 -26 109 -45 q 101 13 123 -17 q 79 81 79 43 q 182 212 79 151 q 83 395 83 274 q 155 559 83 494 q 325 623 225 623 q 424 603 378 623 l 627 603 q 633 596 633 603 l 633 561 q 627 554 633 555 l 504 545 q 557 401 557 486 q 487 240 557 304 q 319 176 418 176 q 228 191 268 176 z "},"h":{"ha":793,"x_min":25,"x_max":757,"o":"m 205 979 q 212 981 210 981 l 253 981 q 260 974 260 981 l 260 550 q 473 625 369 625 q 653 424 653 625 l 653 65 q 660 58 653 58 l 750 49 q 757 41 757 49 l 757 7 q 750 0 757 0 l 446 0 q 439 7 439 0 l 439 41 q 446 49 439 49 l 533 58 q 541 65 541 58 l 541 383 q 411 533 541 533 q 299 514 362 533 q 267 501 280 509 q 260 493 260 498 l 260 65 q 267 58 260 58 l 354 49 q 361 41 361 49 l 361 7 q 354 0 361 0 l 43 0 q 36 7 36 0 l 36 41 q 43 49 36 49 l 140 58 q 147 65 147 58 l 147 888 q 140 895 147 895 l 32 905 q 25 913 25 905 l 25 945 q 31 951 25 951 l 205 979 z "},"i":{"ha":396,"x_min":35,"x_max":366,"o":"m 197 942 q 251 921 230 942 q 272 868 272 901 q 251 815 272 836 q 197 794 230 794 q 143 815 165 794 q 122 868 122 836 q 143 921 122 901 q 197 942 165 942 m 45 0 q 37 7 37 0 l 37 41 q 45 49 37 49 l 142 58 q 149 65 149 58 l 149 524 q 142 530 149 530 l 41 542 q 35 549 35 542 l 35 581 q 40 587 35 587 l 207 615 q 215 616 210 616 l 254 616 q 261 610 261 616 l 261 65 q 268 58 261 58 l 358 49 q 366 41 366 49 l 366 7 q 358 0 366 0 l 45 0 z "},"j":{"ha":358,"x_min":-21,"x_max":260,"o":"m 184 942 q 239 922 218 942 q 260 868 260 901 q 238 815 260 836 q 184 794 217 794 q 131 815 152 794 q 110 868 110 836 q 131 921 110 901 q 184 942 152 942 m 195 615 q 203 616 197 616 l 241 616 q 249 610 249 616 l 249 41 q 212 -183 249 -104 q 7 -355 159 -295 q 0 -350 2 -355 l -17 -321 q -17 -310 -21 -314 q 75 -237 50 -268 q 129 -107 116 -186 q 136 35 136 -62 l 136 524 q 129 530 136 530 l 29 542 q 22 549 22 542 l 22 581 q 28 587 24 587 l 195 615 z "},"k":{"ha":736,"x_min":25,"x_max":733,"o":"m 147 888 q 140 895 147 895 l 32 905 q 25 913 25 905 l 25 945 q 31 951 25 951 l 205 979 q 212 981 210 981 l 253 981 q 260 974 260 981 l 260 355 q 262 350 260 351 q 269 353 265 349 l 473 541 q 474 546 475 543 q 469 549 473 549 l 399 554 q 392 561 392 555 l 392 596 q 399 603 392 603 l 660 603 q 667 596 667 603 l 667 561 q 660 554 667 554 l 567 546 q 562 543 565 545 l 379 374 q 376 370 376 372 q 378 364 376 366 l 642 60 q 646 57 644 57 l 726 49 q 733 41 733 49 l 733 7 q 726 0 733 0 l 433 0 q 427 7 427 0 l 427 41 q 433 49 427 48 l 489 53 q 493 56 493 53 q 492 61 493 59 l 272 314 q 264 315 269 317 q 260 309 260 313 l 260 65 q 267 58 260 58 l 339 49 q 346 41 346 49 l 346 7 q 339 0 346 0 l 46 0 q 39 7 39 0 l 39 41 q 46 49 39 49 l 140 58 q 147 65 147 58 l 147 888 z "},"l":{"ha":397,"x_min":25,"x_max":383,"o":"m 147 888 q 140 895 147 895 l 32 906 q 25 913 25 906 l 25 945 q 31 951 27 951 l 205 979 q 212 981 210 981 l 253 981 q 260 974 260 981 l 260 65 q 267 58 260 59 l 376 49 q 383 41 383 48 l 383 7 q 376 0 383 0 l 32 0 q 25 7 25 0 l 25 41 q 32 49 25 49 l 140 58 q 147 65 147 58 l 147 888 z "},"m":{"ha":1140,"x_min":37,"x_max":1116,"o":"m 43 587 l 210 615 q 224 616 218 616 l 257 616 q 264 610 264 616 l 264 550 q 465 625 364 625 q 616 536 568 625 q 833 619 717 619 q 1011 418 1011 619 l 1011 65 q 1018 58 1011 58 l 1108 49 q 1116 41 1116 49 l 1116 7 q 1108 0 1116 0 l 811 0 q 804 7 804 0 l 804 41 q 811 49 804 49 l 892 58 q 899 65 899 58 l 899 376 q 771 526 899 526 q 632 489 691 526 q 637 427 637 467 l 637 65 q 644 58 637 58 l 725 49 q 732 41 732 49 l 732 7 q 725 0 732 0 l 437 0 q 431 7 431 0 l 431 41 q 437 49 431 49 l 518 58 q 525 65 525 58 l 525 383 q 403 533 525 533 q 271 501 334 533 q 264 496 268 500 l 264 65 q 271 58 264 58 l 351 49 q 358 41 358 49 l 358 7 q 351 0 358 0 l 47 0 q 40 7 40 0 l 40 41 q 47 49 40 49 l 144 58 q 151 65 151 58 l 151 524 q 144 530 151 530 l 45 542 q 37 549 37 542 l 37 581 q 43 587 37 587 z "},"n":{"ha":786,"x_min":37,"x_max":761,"o":"m 210 615 q 218 616 217 616 l 257 616 q 264 610 264 616 l 264 550 q 417 619 326 600 q 478 625 445 625 q 657 424 657 625 l 657 65 q 664 58 657 58 l 754 49 q 761 41 761 49 l 761 7 q 754 0 761 0 l 450 0 q 443 7 443 0 l 443 41 q 450 49 443 49 l 538 58 q 545 65 545 58 l 545 383 q 518 493 545 458 q 415 533 488 533 q 271 501 333 533 q 264 496 265 498 l 264 65 q 271 58 264 58 l 358 49 q 366 41 366 49 l 366 7 q 358 0 366 0 l 47 0 q 40 7 40 0 l 40 41 q 47 49 40 49 l 144 58 q 151 65 151 58 l 151 524 q 144 530 151 530 l 45 542 q 37 549 37 542 l 37 581 q 43 587 37 587 l 210 615 z "},"o":{"ha":705,"x_min":45,"x_max":661,"o":"m 339 562 q 205 486 249 562 q 171 329 171 426 q 275 65 171 134 q 367 40 313 40 q 534 275 534 40 q 495 466 534 391 q 339 562 445 562 m 357 623 q 583 537 503 623 q 661 306 661 454 q 577 73 661 164 q 350 -20 490 -20 q 124 67 205 -20 q 45 297 45 151 q 128 530 45 441 q 357 623 214 623 z "},"p":{"ha":725,"x_min":16,"x_max":681,"o":"m 241 74 q 354 43 273 43 q 543 197 499 43 q 555 298 555 243 q 518 456 555 396 q 382 530 473 530 q 249 493 309 530 q 241 485 241 490 l 241 74 m 187 615 q 196 616 190 616 l 235 616 q 241 610 241 616 l 241 545 q 441 623 337 623 q 620 533 553 623 q 681 338 681 452 q 590 83 681 184 q 343 -20 496 -20 q 241 -7 301 -20 l 241 -275 q 249 -282 241 -282 l 355 -292 q 363 -298 363 -292 l 363 -334 q 355 -340 363 -340 l 25 -340 q 18 -334 18 -340 l 18 -298 q 25 -292 18 -292 l 122 -282 q 129 -275 129 -282 l 129 524 q 122 530 129 530 l 22 542 q 16 549 16 542 l 16 581 q 21 587 18 587 l 187 615 z "},"q":{"ha":715,"x_min":45,"x_max":703,"o":"m 484 528 q 371 559 452 559 q 216 479 271 559 q 170 304 170 410 q 207 146 170 208 q 343 72 252 72 q 476 110 416 72 q 484 118 483 116 l 484 528 m 484 58 q 283 -20 393 -20 q 106 71 173 -20 q 45 265 45 153 q 136 518 45 418 q 382 623 231 623 q 525 590 456 623 l 546 612 q 553 616 549 616 l 589 616 q 596 610 596 616 l 596 -275 q 603 -282 596 -282 l 696 -292 q 703 -298 703 -292 l 703 -334 q 696 -340 703 -340 l 379 -340 q 372 -334 372 -340 l 372 -298 q 379 -292 372 -292 l 476 -282 q 484 -275 484 -282 l 484 58 z "},"r":{"ha":532,"x_min":37,"x_max":539,"o":"m 436 623 q 488 610 457 623 q 534 582 519 597 q 538 576 536 581 q 536 570 539 572 l 468 472 q 460 465 463 465 q 457 467 458 465 q 390 497 427 497 q 310 457 345 497 l 269 410 q 264 395 264 404 l 264 65 q 271 58 264 59 l 389 49 q 396 41 396 48 l 396 7 q 389 0 396 0 l 47 0 q 40 7 40 0 l 40 41 q 47 49 40 49 l 144 58 q 151 65 151 58 l 151 524 q 144 530 151 530 l 45 542 q 37 549 37 542 l 37 581 q 43 587 37 587 l 210 615 q 218 616 217 616 l 257 616 q 264 610 264 616 l 264 481 l 338 567 q 436 623 385 623 z "},"s":{"ha":498,"x_min":45,"x_max":464,"o":"m 375 428 q 368 433 368 430 l 346 542 q 340 550 346 547 q 264 566 307 566 q 163 516 191 566 q 153 476 153 498 q 253 372 153 413 l 311 349 q 464 179 464 286 q 387 31 464 86 q 221 -20 317 -20 q 57 12 151 -20 q 50 20 50 14 l 50 180 q 57 186 50 186 l 100 186 q 107 180 107 186 l 129 69 q 135 61 130 66 q 233 39 182 39 q 353 139 353 39 q 292 227 353 198 q 254 244 281 232 l 192 269 q 45 443 45 328 q 118 577 45 524 q 269 623 181 623 q 418 597 341 623 q 425 590 425 596 l 425 433 q 418 428 425 428 l 375 428 z "},"t":{"ha":458,"x_min":14,"x_max":444,"o":"m 107 526 q 100 533 107 533 l 20 533 q 14 539 14 533 l 14 546 q 18 554 14 550 l 196 733 q 207 739 202 739 l 214 739 q 220 732 220 739 l 220 604 q 227 597 220 597 l 411 597 q 418 590 418 597 l 418 541 q 411 533 418 533 l 227 533 q 220 526 220 533 l 220 157 q 309 57 220 57 q 414 90 374 57 q 420 92 416 93 q 425 90 423 92 l 443 56 q 439 46 444 50 q 347 -3 385 10 q 241 -20 295 -20 q 146 16 184 -20 q 107 107 107 51 l 107 526 z "},"u":{"ha":751,"x_min":0,"x_max":728,"o":"m 504 65 q 296 -20 405 -20 q 166 26 216 -20 q 114 153 114 74 l 114 524 q 107 530 114 530 l 7 542 q 0 549 0 542 l 0 581 q 5 587 0 587 l 172 615 q 179 616 174 616 l 220 616 q 227 610 227 616 l 227 201 q 357 72 227 72 q 494 115 424 72 q 501 123 501 119 l 501 524 q 494 530 501 530 l 395 542 q 387 549 387 542 l 387 581 q 393 587 387 587 l 559 615 q 568 616 562 616 l 607 616 q 614 610 614 616 l 614 66 q 621 60 614 60 l 721 49 q 728 41 728 49 l 728 9 q 722 3 728 3 l 515 -11 q 509 -4 509 -12 l 504 65 z "},"v":{"ha":705,"x_min":5,"x_max":697,"o":"m 543 538 q 543 545 545 541 q 538 547 542 547 l 465 555 q 460 561 460 555 l 460 596 q 467 603 460 603 l 690 603 q 697 596 697 603 l 697 562 q 690 555 697 555 l 614 547 q 608 543 610 547 l 375 -9 q 370 -14 373 -14 l 338 -14 q 332 -9 334 -13 l 97 542 q 92 546 94 546 l 11 555 q 5 561 5 555 l 5 596 q 12 603 5 603 l 301 603 q 309 596 309 603 l 309 561 q 302 555 309 555 l 231 547 q 225 538 221 547 l 385 157 l 543 538 z "},"w":{"ha":1071,"x_min":5,"x_max":1063,"o":"m 509 444 q 512 454 511 449 q 509 461 511 456 l 476 542 q 471 546 473 546 l 397 555 q 392 561 392 555 l 392 596 q 399 603 392 603 l 677 603 q 685 596 685 603 l 685 561 q 679 555 685 555 l 607 547 q 602 538 597 547 l 755 160 l 908 538 q 903 547 912 547 l 831 555 q 825 561 825 555 l 825 596 q 832 603 825 603 l 1055 603 q 1063 596 1063 603 l 1063 562 q 1055 555 1063 555 l 979 547 q 974 543 976 547 l 747 -9 q 742 -14 746 -14 l 707 -14 q 701 -9 703 -14 l 541 383 l 367 -9 q 361 -14 366 -14 l 329 -14 q 323 -9 325 -14 l 97 542 q 92 546 94 546 l 11 555 q 5 561 5 555 l 5 596 q 12 603 5 603 l 301 603 q 300 604 300 604 q 309 596 309 604 l 309 561 q 302 555 309 555 l 231 547 q 225 538 221 547 l 380 160 l 509 444 z "},"x":{"ha":677,"x_min":14,"x_max":688,"o":"m 196 65 q 195 58 195 61 q 200 54 196 54 l 258 49 q 265 41 265 49 l 265 7 q 258 0 265 0 l 21 0 q 14 7 14 0 l 14 41 q 21 49 14 49 l 114 58 q 118 61 116 59 l 296 283 q 296 292 297 288 l 121 542 q 117 545 118 545 l 25 554 q 18 561 18 554 l 18 596 q 25 603 18 603 l 321 603 q 328 596 328 603 l 328 561 q 321 554 328 555 l 269 550 q 263 547 265 550 q 264 539 261 543 l 372 382 l 494 538 q 495 545 496 542 q 490 549 494 549 l 444 554 q 437 561 437 554 l 437 596 q 444 603 437 603 l 654 603 q 661 596 661 603 l 661 561 q 654 554 661 554 l 576 546 q 572 543 574 545 l 408 338 q 408 329 405 334 l 595 60 q 599 57 597 57 l 681 49 q 688 41 688 49 l 688 7 q 681 0 688 0 l 393 0 q 386 7 386 0 l 386 41 q 393 49 386 48 l 446 53 q 452 56 450 54 q 450 64 453 60 l 332 239 l 196 65 z "},"y":{"ha":720,"x_min":5,"x_max":711,"o":"m 301 603 q 309 596 309 603 l 309 561 q 302 555 309 555 l 231 547 q 225 538 221 547 l 389 142 l 557 538 q 551 547 561 547 l 479 555 q 473 561 473 555 l 473 596 q 481 603 473 603 l 704 603 q 711 596 711 603 l 711 562 q 704 555 711 555 l 628 547 q 623 543 625 547 l 374 -43 q 140 -358 239 -358 q 131 -355 136 -358 l 65 -290 q 64 -281 60 -286 l 81 -253 q 87 -250 83 -250 q 195 -220 153 -250 q 265 -132 227 -195 q 323 -12 289 -92 q 323 5 326 -6 l 97 542 q 92 546 94 546 l 11 555 q 5 561 5 555 l 5 596 q 12 603 5 603 l 301 603 z "},"z":{"ha":624,"x_min":41,"x_max":566,"o":"m 475 58 q 482 64 479 58 l 507 180 q 514 186 510 186 l 554 186 q 561 179 561 186 l 561 7 q 554 0 561 0 l 56 0 q 49 5 52 0 l 41 35 l 41 37 q 43 40 41 39 l 407 545 l 150 545 q 143 539 143 545 l 119 422 q 113 416 119 416 l 72 416 q 65 424 65 416 l 65 596 q 72 603 65 603 l 550 603 q 557 599 554 603 l 566 572 l 566 570 q 564 567 566 568 l 193 58 l 475 58 z "}}}
